<svg width="374" height="374" viewBox="0 0 374 374" fill="none" xmlns="http://www.w3.org/2000/svg">
<circle cx="187" cy="187" r="181.156" fill="white" stroke="#E9E9F2" stroke-width="11.6875"/>
<path d="M223.147 99.3517C210.463 99.1682 197.238 102.845 186.988 113.167C176.659 102.865 163.306 99.3509 150.966 99.3509C120.303 99.3509 89.6052 124.756 89.6052 160.71C89.6052 195.376 111.778 224.237 133.708 243.857C144.804 253.785 156.184 261.666 165.427 267.094C170.045 269.806 174.208 271.952 177.604 273.446C179.297 274.191 180.885 274.812 182.299 275.261C183.53 275.651 185.264 276.124 187.004 276.124C188.744 276.124 190.478 275.651 191.709 275.261C193.123 274.812 194.711 274.191 196.404 273.446C199.8 271.952 203.963 269.806 208.581 267.094C217.823 261.666 229.204 253.785 240.3 243.857C262.23 224.237 284.403 195.376 284.403 160.71C284.403 124.671 253.633 99.7928 223.147 99.3517Z" fill="#F74440"/>
</svg>
